<?xml version="1.0" encoding="UTF-8"?>
<svg version="1.1" xmlns="http://www.w3.org/2000/svg" width="713" height="340">
<path d="M0 0 C0.96084503 0.00007553 1.92169006 0.00015106 2.91165161 0.00022888 C3.95127045 0.00539017 4.99088928 0.01055145 6.06201172 0.01586914 C7.12459198 0.01728409 8.18717224 0.01869904 9.2819519 0.02015686 C12.68522931 0.02576705 16.0884416 0.0383213 19.49169922 0.05102539 C21.79508369 0.05603908 24.09846918 0.06060221 26.40185547 0.06469727 C32.05682571 0.0757398 37.71175781 0.09248788 43.36669922 0.11352539 C43.22683217 1.71550196 43.08118774 3.31697482 42.93310547 4.91821289 C42.85261963 5.81008301 42.77213379 6.70195312 42.68920898 7.62084961 C42.33435516 10.36351239 41.60339753 12.64012877 40.36669922 15.11352539 C40.96095703 14.96915039 41.55521484 14.82477539 42.16748047 14.67602539 C51.7033194 12.54047204 61.36177563 11.55478282 70.36669922 16.11352539 C72.76191461 18.12617166 73.3460523 19.05158463 74.36669922 22.11352539 C74.49826449 25.79735308 74.5365206 28.60406124 73.36669922 32.11352539 C74.68669922 32.11352539 76.00669922 32.11352539 77.36669922 32.11352539 C76.74973496 35.34428074 76.12170769 38.5727905 75.49169922 41.80102539 C75.31767578 42.71303711 75.14365234 43.62504883 74.96435547 44.56469727 C74.79033203 45.45092773 74.61630859 46.3371582 74.43701172 47.25024414 C74.27990723 48.06195068 74.12280273 48.87365723 73.9609375 49.70996094 C73.3210535 52.2981524 72.40824648 54.66226489 71.36669922 57.11352539 C66.84697572 57.3697313 62.32617854 57.58867342 57.80419922 57.80102539 C55.88897461 57.91027344 55.88897461 57.91027344 53.93505859 58.02172852 C46.20497071 58.36305707 40.86575302 58.41283151 34.49169922 53.73852539 C32.85339082 51.37207993 32.49355787 50.03127448 32.36669922 47.11352539 C33.48989469 42.28378487 34.97234544 37.83115095 38.36669922 34.11352539 C38.03669922 33.45352539 37.70669922 32.79352539 37.36669922 32.11352539 C43.89222352 28.70245587 48.10488131 27.99249509 55.36669922 28.11352539 C55.36669922 27.45352539 55.36669922 26.79352539 55.36669922 26.11352539 C48.60454474 26.52292514 42.69507174 27.68306348 36.36669922 30.11352539 C34.35821306 26.09655308 37.28959645 20.16343178 38.36669922 16.11352539 C34.07669922 16.11352539 29.78669922 16.11352539 25.36669922 16.11352539 C25.05732422 17.84602539 24.74794922 19.57852539 24.42919922 21.36352539 C23.84274152 24.64768851 23.21927528 27.8875619 22.36669922 31.11352539 C23.35669922 31.11352539 24.34669922 31.11352539 25.36669922 31.11352539 C21.49468187 55.98554274 21.49468187 55.98554274 19.36669922 58.11352539 C17.95099799 58.2000415 16.53110421 58.22057443 15.11279297 58.21118164 C14.25878906 58.20795898 13.40478516 58.20473633 12.52490234 58.20141602 C11.62707031 58.19303711 10.72923828 58.1846582 9.80419922 58.17602539 C8.9025 58.17151367 8.00080078 58.16700195 7.07177734 58.16235352 C4.83668608 58.15052764 2.60172485 58.13404759 0.36669922 58.11352539 C-0.73829923 54.79853004 -0.52427875 53.83482021 0.32763672 50.55102539 C0.55193359 49.67188477 0.77623047 48.79274414 1.00732422 47.88696289 C1.37083984 46.51411133 1.37083984 46.51411133 1.74169922 45.11352539 C1.97630859 44.19829102 2.21091797 43.28305664 2.45263672 42.34008789 C3.34205551 38.89359009 4.2407853 35.49126715 5.36669922 32.11352539 C4.37669922 32.11352539 3.38669922 32.11352539 2.36669922 32.11352539 C2.67594135 30.00887746 2.98920482 27.90482009 3.30419922 25.80102539 C3.56523437 24.04338867 3.56523437 24.04338867 3.83154297 22.25024414 C4.36669922 19.11352539 4.36669922 19.11352539 5.36669922 16.11352539 C0.74669922 16.11352539 -3.87330078 16.11352539 -8.63330078 16.11352539 C-10.16044039 13.05924617 -9.07858838 10.82280029 -8.32080078 7.55102539 C-8.05654297 6.37411133 -7.79228516 5.19719727 -7.52001953 3.98461914 C-7.22740234 3.0371582 -6.93478516 2.08969727 -6.63330078 1.11352539 C-4.21555497 -0.09534751 -2.69999014 -0.00706804 0 0 Z M50.36669922 42.11352539 C50.69669922 43.43352539 51.02669922 44.75352539 51.36669922 46.11352539 C53.33426374 46.08229596 53.33426374 46.08229596 55.36669922 45.11352539 C56.67126482 42.11736593 56.67126482 42.11736593 57.36669922 39.11352539 C53.84953619 39.11352539 52.99548174 39.93798124 50.36669922 42.11352539 Z " fill="#1E5375" transform="translate(215.63330078125,149.886474609375)"/>
<path d="M0 0 C0.85916016 -0.01224609 1.71832031 -0.02449219 2.60351562 -0.03710938 C3.8497168 -0.04000977 3.8497168 -0.04000977 5.12109375 -0.04296875 C5.87704834 -0.04707764 6.63300293 -0.05118652 7.41186523 -0.05541992 C9.87389601 0.22267301 11.46485008 0.88231473 13.5625 2.1875 C15.1792707 5.42104139 15.03881929 7.61510535 14.5625 11.1875 C11.74108294 14.52327728 8.17255437 16.78079709 4.5625 19.1875 C3.56154021 22.57536391 3.35295007 24.57282022 4.5 27.9375 C5.57574643 31.2280185 5.48455238 32.82426293 5.1875 36.1875 C5.13377362 39.17379115 5.11584293 40.62181619 6.984375 42.98828125 C9.09276786 44.62017732 11.22178433 45.9117908 13.5625 47.1875 C14.29855469 47.62707031 15.03460938 48.06664062 15.79296875 48.51953125 C25.62170637 53.96896534 37.36612626 56.78881607 48.5625 57.1875 C49.67882812 57.2390625 50.79515625 57.290625 51.9453125 57.34375 C62.76734059 57.61486553 72.89223705 56.16206529 83.296875 53.08203125 C87.20482522 52.01155206 89.67207376 52.06526166 93.5625 53.1875 C95.85701856 55.48201856 96.51514495 57.06950901 96.65234375 60.30859375 C96.30512259 65.58813604 95.09082423 69.11635666 91.5625 73.1875 C88.20259085 76.07407322 84.58926947 78.53410125 80.85546875 80.91015625 C79.95441406 81.49667969 79.05335938 82.08320313 78.125 82.6875 C77.28066406 83.2134375 76.43632812 83.739375 75.56640625 84.28125 C72.90374636 86.43155077 72.90374636 86.43155077 72.5625 92.1875 C58.7025 92.5175 44.8425 92.8475 30.5625 93.1875 C29.9025 90.8775 29.2425 88.5675 28.5625 86.1875 C26.85480139 84.26930015 26.85480139 84.26930015 24.75 82.875 C19.45888992 78.60952177 17.17686598 73.37053698 14.76953125 67.1328125 C13.57444798 64.05596827 12.74485524 62.33244903 10.125 60.25 C4.62820822 55.82575295 3.37620264 49.9683553 2.5625 43.1875 C1.9025 42.5275 1.2425 41.8675 0.5625 41.1875 C0.75714844 40.62804687 0.95179687 40.06859375 1.15234375 39.4921875 C1.8769086 35.4208231 -0.94373932 31.96216177 -2.90039062 28.49609375 C-5.03961601 24.52755089 -5.82976358 21.68820846 -5.4375 17.1875 C-6.18 16.960625 -6.9225 16.73375 -7.6875 16.5 C-11.07296867 14.88420814 -12.47960415 13.37814508 -14.4375 10.1875 C-14.93373677 6.05219356 -14.77918764 4.70003146 -12.4375 1.1875 C-8.27634532 -0.19955156 -4.35784238 0.00325455 0 0 Z M-10.4375 6.1875 C-9.31895414 9.91364153 -9.31895414 9.91364153 -6.4375 12.1875 C-6.4375 9.8775 -6.4375 7.5675 -6.4375 5.1875 C-8.5120356 5.0384288 -8.5120356 5.0384288 -10.4375 6.1875 Z M-6.4375 12.1875 C-5.4375 14.1875 -5.4375 14.1875 -5.4375 14.1875 Z M85.5625 58.1875 C85.8925 61.8175 86.2225 65.4475 86.5625 69.1875 C88.5076 66.26985 89.01526317 64.56212715 89.5625 61.1875 C88.5725 60.8575 87.5825 60.5275 86.5625 60.1875 C86.2325 59.5275 85.9025 58.8675 85.5625 58.1875 Z M90.5625 58.1875 C90.2325 60.8275 89.9025 63.4675 89.5625 66.1875 C90.2225 66.1875 90.8825 66.1875 91.5625 66.1875 C92.24051034 63.28676819 92.24051034 63.28676819 92.5625 60.1875 C91.9025 59.5275 91.2425 58.8675 90.5625 58.1875 Z M19.5625 61.1875 C20.47444395 68.71889921 22.62255901 74.35510147 27.5625 80.1875 C28.5525 80.8475 29.5425 81.5075 30.5625 82.1875 C31.5525 81.8575 32.5425 81.5275 33.5625 81.1875 C32.840625 80.73375 32.11875 80.28 31.375 79.8125 C26.14650218 74.9325687 23.52988363 67.98391617 21.5625 61.1875 C20.9025 61.1875 20.2425 61.1875 19.5625 61.1875 Z " fill="#101010" transform="translate(82.4375,136.8125)"/>
<path d="M0 0 C-0.45224761 5.91492272 -1.1582605 11.35199888 -3 17 C-6.3125 17.3125 -6.3125 17.3125 -10 17 C-11.75 14.5625 -11.75 14.5625 -13 12 C-17.8811749 10.3729417 -21.74405013 10.58856815 -26.625 12.1875 C-31.82352008 14.97929782 -35.46231268 18.6426601 -38 24 C-37.2981424 26.8509288 -37.2981424 26.8509288 -36 28 C-35.87625 29.11375 -35.7525 30.2275 -35.625 31.375 C-34.92533895 35.46781081 -34.92533895 35.46781081 -32 38 C-29.72838745 38.57323807 -29.72838745 38.57323807 -27.3125 38.6875 C-26.50425781 38.75324219 -25.69601562 38.81898438 -24.86328125 38.88671875 C-24.24839844 38.92410156 -23.63351562 38.96148437 -23 39 C-23 37.35 -23 35.7 -23 34 C-25.64 34 -28.28 34 -31 34 C-30.67 32.35 -30.34 30.7 -30 29 C-31.32 29 -32.64 29 -34 29 C-33.54177532 25.53058454 -33.10868317 22.32604951 -32 19 C-22.76 19 -13.52 19 -4 19 C-4 21.64 -4 24.28 -4 27 C-3.34 27 -2.68 27 -2 27 C-2.21504464 30.35173028 -2.57597266 33.66835659 -3 37 C-3.12632812 38.05445313 -3.25265625 39.10890625 -3.3828125 40.1953125 C-4.76105942 48.09596739 -4.76105942 48.09596739 -8.2109375 50.61328125 C-18.14990669 54.71720997 -32.90514841 56.51151239 -43.125 52.4375 C-47.7365744 49.95502413 -51.91276118 46.15103945 -53.65234375 41.109375 C-54.06217413 38.62276368 -54.09564774 36.26922801 -54.0625 33.75 C-54.05347656 32.85796875 -54.04445313 31.9659375 -54.03515625 31.046875 C-54.02355469 30.37140625 -54.01195312 29.6959375 -54 29 C-55.32 29 -56.64 29 -58 29 C-56.15690486 17.75711967 -51.1043453 8.06869063 -42 1 C-28.37726124 -7.22698531 -14.16692902 -7.08346451 0 0 Z " fill="#1F5375" transform="translate(438,155)"/>
<path d="M0 0 C6.27 0 12.54 0 19 0 C18.690625 1.65 18.38125 3.3 18.0625 5 C17.21278684 9.65835653 16.53256036 14.29571685 16 19 C16.61230469 18.18144531 17.22460938 17.36289063 17.85546875 16.51953125 C20.41166857 13.96333143 22.2868004 13.61680966 25.86328125 13.51171875 C27.680332 13.54475604 29.49706335 13.60410538 31.3125 13.6875 C32.70952148 13.72133789 32.70952148 13.72133789 34.13476562 13.75585938 C36.4248396 13.81457922 38.71157875 13.89663142 41 14 C41 17 41 17 39.71484375 18.62573242 C39.12832031 19.19654541 38.54179687 19.7673584 37.9375 20.35546875 C37.30585938 20.97744141 36.67421875 21.59941406 36.0234375 22.24023438 C35.35570312 22.88283203 34.68796875 23.52542969 34 24.1875 C33.33226562 24.84169922 32.66453125 25.49589844 31.9765625 26.16992188 C30.32421559 27.78686135 28.66528399 29.39640491 27 31 C28.47968616 34.99915179 29.97333557 38.98231229 31.60546875 42.921875 C31.86650391 43.55480469 32.12753906 44.18773437 32.39648438 44.83984375 C32.93107008 46.13076924 33.47025854 47.41979683 34.01367188 48.70703125 C35.40110234 52.09389158 36 54.27342233 36 58 C29.4 58 22.8 58 16 58 C14.68 55.36 13.36 52.72 12 50 C11.01 52.64 10.02 55.28 9 58 C3.39 58 -2.22 58 -8 58 C-9.05611009 54.83166974 -8.97096215 53.98962708 -8.22265625 50.875 C-8.03896484 50.08609375 -7.85527344 49.2971875 -7.66601562 48.484375 C-7.46685547 47.66453125 -7.26769531 46.8446875 -7.0625 46 C-6.67557178 44.37566766 -6.29134319 42.75068925 -5.91015625 41.125 C-5.64924194 40.04605469 -5.64924194 40.04605469 -5.38305664 38.9453125 C-4.9033987 36.83986525 -4.9033987 36.83986525 -5 34 C-5.66 33.67 -6.32 33.34 -7 33 C-5.44985838 21.82509844 -2.68498676 10.94490785 0 0 Z " fill="#1E5375" transform="translate(343,150)"/>
<path d="M0 0 C3.02531978 2.5440189 3.99762768 3.46704148 4.75 7.3125 C4.6001782 10.67574101 4.22865961 13.98128788 3.75 17.3125 C4.74 17.3125 5.73 17.3125 6.75 17.3125 C6.12392048 23.11197349 5.07599062 28.65059831 3.6875 34.3125 C3.50123047 35.08722656 3.31496094 35.86195313 3.12304688 36.66015625 C2.66923822 38.54520759 2.21017508 40.4289927 1.75 42.3125 C-2.24795892 43.26869733 -5.95803922 43.4164592 -10.0625 43.375 C-11.22394531 43.36597656 -12.38539063 43.35695312 -13.58203125 43.34765625 C-14.46246094 43.33605469 -15.34289062 43.32445312 -16.25 43.3125 C-17.38902011 39.89543968 -17.0698446 38.64989308 -16.25390625 35.20703125 C-16.02509766 34.22412109 -15.79628906 33.24121094 -15.56054688 32.22851562 C-15.31369141 31.20435547 -15.06683594 30.18019531 -14.8125 29.125 C-14.44801758 27.57135742 -14.44801758 27.57135742 -14.07617188 25.98632812 C-13.47457901 23.42660947 -12.86559499 20.86888082 -12.25 18.3125 C-13.24 18.3125 -14.23 18.3125 -15.25 18.3125 C-15.58 16.9925 -15.91 15.6725 -16.25 14.3125 C-16.91 14.3125 -17.57 14.3125 -18.25 14.3125 C-18.58 15.3025 -18.91 16.2925 -19.25 17.3125 C-18.26 17.3125 -17.27 17.3125 -16.25 17.3125 C-16.87845428 23.07987726 -17.89338849 28.61219783 -19.25 34.25 C-19.42789062 35.01634766 -19.60578125 35.78269531 -19.7890625 36.57226562 C-21.12106199 42.18356199 -21.12106199 42.18356199 -22.25 43.3125 C-25.11267567 43.38575168 -27.950719 43.40488205 -30.8125 43.375 C-31.61880859 43.37048828 -32.42511719 43.36597656 -33.25585938 43.36132812 C-35.25393756 43.34950518 -37.25197783 43.33156914 -39.25 43.3125 C-40.62694079 39.18167762 -39.37087984 35.95438637 -38.3125 31.875 C-37.92423166 30.3565248 -37.53997789 28.83701624 -37.16015625 27.31640625 C-36.98621338 26.64424072 -36.81227051 25.9720752 -36.63305664 25.27954102 C-36.12256879 22.99212431 -36.12256879 22.99212431 -36.25 19.3125 C-36.91 18.9825 -37.57 18.6525 -38.25 18.3125 C-37.99097292 16.45664718 -37.71713406 14.60285982 -37.4375 12.75 C-37.28667969 11.71746094 -37.13585937 10.68492187 -36.98046875 9.62109375 C-36.15232745 5.8701008 -34.85324734 2.79571957 -33.25 -0.6875 C-32.66508789 -0.68226318 -32.08017578 -0.67702637 -31.47753906 -0.67163086 C-28.81837037 -0.65079842 -26.15921889 -0.63781993 -23.5 -0.625 C-22.57960938 -0.61662109 -21.65921875 -0.60824219 -20.7109375 -0.59960938 C-19.82148438 -0.59638672 -18.93203125 -0.59316406 -18.015625 -0.58984375 C-16.79020996 -0.58198853 -16.79020996 -0.58198853 -15.54003906 -0.57397461 C-2.36346597 -1.22718426 -2.36346597 -1.22718426 0 0 Z " fill="#1E5375" transform="translate(525.25,164.6875)"/>
<path d="M0 0 C3.82414212 2.70488101 6.07909586 5.36228759 7.5625 9.8125 C7.69031786 12.48644964 7.60641871 15.13345857 7.5625 17.8125 C8.8825 18.1425 10.2025 18.4725 11.5625 18.8125 C10.9025 21.4525 10.2425 24.0925 9.5625 26.8125 C1.3125 26.8125 -6.9375 26.8125 -15.4375 26.8125 C-11.94320621 31.12984294 -11.94320621 31.12984294 -7.8125 31.25 C-3.49190922 31.05508613 0.39794651 29.78622219 4.4609375 28.37109375 C6.5625 27.8125 6.5625 27.8125 8.5625 28.8125 C7.56087464 37.86166701 7.56087464 37.86166701 3.9375 41.3125 C-4.48002204 45.05362091 -13.89871957 46.64027702 -22.8125 43.5625 C-27.59219091 41.45122549 -30.62272254 39.19762169 -33.3125 34.625 C-34.96741493 29.01667717 -34.26795382 24.30386146 -32.4375 18.8125 C-33.7575 18.4825 -35.0775 18.1525 -36.4375 17.8125 C-31.96865519 8.7839802 -26.51380128 3.78600914 -17.5 -0.625 C-11.52334577 -1.72275282 -5.78455591 -1.99830113 0 0 Z M-16.4375 12.8125 C-16.4375 13.1425 -16.4375 13.4725 -16.4375 13.8125 C-13.4675 13.8125 -10.4975 13.8125 -7.4375 13.8125 C-8.4275 12.8225 -9.4175 11.8325 -10.4375 10.8125 C-12.52178209 10.8125 -14.53567964 12.03226601 -16.4375 12.8125 Z " fill="#1E5376" transform="translate(593.4375,164.1875)"/>
<path d="M0 0 C3.82414212 2.70488101 6.07909586 5.36228759 7.5625 9.8125 C7.69031786 12.48644964 7.60641871 15.13345857 7.5625 17.8125 C8.8825 17.8125 10.2025 17.8125 11.5625 17.8125 C10.9025 20.7825 10.2425 23.7525 9.5625 26.8125 C1.3125 26.8125 -6.9375 26.8125 -15.4375 26.8125 C-11.97434731 31.10857942 -11.97434731 31.10857942 -8.0625 31.1875 C-4.48947292 30.95034123 -4.48947292 30.95034123 -1.4375 29.8125 C2.02917302 28.65694233 4.93238115 28.66729525 8.5625 28.8125 C8.15530362 33.12878165 7.45561428 36.89067648 5.5625 40.8125 C-1.20642534 45.47625717 -10.49219113 45.74525903 -18.4375 44.8125 C-24.04406867 43.52010689 -29.3707172 41.03869754 -32.55859375 36.0625 C-33.68230055 33.1858106 -33.66700086 30.8313358 -33.625 27.75 C-33.61855469 26.70714844 -33.61210937 25.66429687 -33.60546875 24.58984375 C-33.4375 21.8125 -33.4375 21.8125 -32.4375 18.8125 C-33.4275 18.8125 -34.4175 18.8125 -35.4375 18.8125 C-34.55294045 12.28036794 -30.49326621 8.43927096 -25.62890625 4.2578125 C-18.03541356 -1.45844703 -9.09556774 -3.14210522 0 0 Z M-16.4375 12.8125 C-16.4375 13.1425 -16.4375 13.4725 -16.4375 13.8125 C-13.4675 13.8125 -10.4975 13.8125 -7.4375 13.8125 C-8.4275 12.8225 -9.4175 11.8325 -10.4375 10.8125 C-12.52178209 10.8125 -14.53567964 12.03226601 -16.4375 12.8125 Z " fill="#1F5375" transform="translate(474.4375,164.1875)"/>
<path d="M0 0 C-0.99 4.29 -1.98 8.58 -3 13 C-8.83589515 13 -10.19198407 12.55745528 -15 10 C-17.73572585 9.30092586 -17.73572585 9.30092586 -20 9 C-20 9.66 -20 10.32 -20 11 C-19.443125 11.10957031 -18.88625 11.21914062 -18.3125 11.33203125 C-4.1503268 14.2745098 -4.1503268 14.2745098 -1 19 C-0.54055438 24.60523661 -0.79532194 28.19298292 -4 33 C-9.55382811 38.42760475 -15.11729155 41.34470855 -22.90014648 41.41699219 C-23.57247314 41.40313477 -24.2447998 41.38927734 -24.9375 41.375 C-25.6375415 41.36629883 -26.33758301 41.35759766 -27.05883789 41.34863281 C-32.36934663 41.19780472 -36.38763573 40.63563673 -41 38 C-42.56407038 34.49648236 -41.62346423 31.81483982 -40.5625 28.25 C-40.27503906 27.26515625 -39.98757813 26.2803125 -39.69140625 25.265625 C-39.46324219 24.51796875 -39.23507812 23.7703125 -39 23 C-37.35 22.67 -35.7 22.34 -34 22 C-34.66 21.01 -35.32 20.02 -36 19 C-36 18.01 -36 17.02 -36 16 C-37.32 16 -38.64 16 -40 16 C-39.56330642 10.54133027 -38.56112098 7.20029654 -35 3 C-24.84575438 -5.48923075 -11.51982833 -5.75991416 0 0 Z M-33 23 C-32.24849977 26.27773504 -32.24849977 26.27773504 -29 28 C-26.94290404 28.24055468 -26.94290404 28.24055468 -24.8125 28.125 C-23.554375 28.08375 -22.29625 28.0425 -21 28 C-21.84429676 25.72573954 -21.84429676 25.72573954 -24.50390625 25.1484375 C-25.51324219 24.89320313 -26.52257812 24.63796875 -27.5625 24.375 C-28.57441406 24.11460937 -29.58632813 23.85421875 -30.62890625 23.5859375 C-31.41136719 23.39257812 -32.19382812 23.19921875 -33 23 Z " fill="#1F5375" transform="translate(336,167)"/>
<path d="M0 0 C6.27 0 12.54 0 19 0 C18.01 4.62 17.02 9.24 16 14 C16.99 14 17.98 14 19 14 C20.11432678 17.34298033 19.86903435 18.46626009 19.07421875 21.81640625 C18.85443359 22.74517578 18.63464844 23.67394531 18.40820312 24.63085938 C18.05145508 26.08202148 18.05145508 26.08202148 17.6875 27.5625 C17.3481543 29.01946289 17.3481543 29.01946289 17.00195312 30.50585938 C15.25672505 37.74327495 15.25672505 37.74327495 13 40 C10.0906442 40.14517744 7.280054 40.18630796 4.375 40.125 C3.57320312 40.11597656 2.77140625 40.10695312 1.9453125 40.09765625 C-0.03658523 40.07406223 -2.01832981 40.03819065 -4 40 C-5.12670431 36.61988706 -4.84431821 35.49542694 -4.00390625 32.11328125 C-3.66069336 30.7065918 -3.66069336 30.7065918 -3.31054688 29.27148438 C-3.06369141 28.29501953 -2.81683594 27.31855469 -2.5625 26.3125 C-2.19801758 24.83040039 -2.19801758 24.83040039 -1.82617188 23.31835938 C-1.22468137 20.87701555 -0.61569994 18.43779191 0 16 C-0.99 16 -1.98 16 -3 16 C-2.88325099 14.64509704 -2.75606577 13.29109304 -2.625 11.9375 C-2.52058594 10.80634766 -2.52058594 10.80634766 -2.4140625 9.65234375 C-1.90250577 6.37548507 -0.91112591 3.18894068 0 0 Z " fill="#1F5274" transform="translate(536,168)"/>
<path d="M0 0 C1.18613892 0.00785522 1.18613892 0.00785522 2.39624023 0.01586914 C3.67724609 0.02070313 3.67724609 0.02070313 4.98413086 0.02563477 C5.88196289 0.03401367 6.77979492 0.04239258 7.70483398 0.05102539 C8.6065332 0.05553711 9.50823242 0.06004883 10.43725586 0.06469727 C12.67230988 0.07652295 14.90733 0.09445901 17.14233398 0.11352539 C17.14233398 3.08352539 17.14233398 6.05352539 17.14233398 9.11352539 C16.48233398 9.11352539 15.82233398 9.11352539 15.14233398 9.11352539 C15.14233398 11.09352539 15.14233398 13.07352539 15.14233398 15.11352539 C8.87233398 15.11352539 2.60233398 15.11352539 -3.85766602 15.11352539 C-4.83373944 11.20923171 -4.79863983 9.7096848 -3.98266602 5.92602539 C-3.79961914 5.0455957 -3.61657227 4.16516602 -3.42797852 3.25805664 C-2.60385498 0.15912637 -2.60385498 0.15912637 0 0 Z " fill="#1F5375" transform="translate(541.857666015625,149.886474609375)"/>
<path d="M0 0 C4.55555556 1.55555556 4.55555556 1.55555556 6 3 C6.1875 5.4375 6.1875 5.4375 6 8 C4 10 4 10 1.6171875 10.1953125 C0.71226563 10.17210937 -0.19265625 10.14890625 -1.125 10.125 C-2.49011719 10.09792969 -2.49011719 10.09792969 -3.8828125 10.0703125 C-4.58148438 10.04710937 -5.28015625 10.02390625 -6 10 C-5.34 9.01 -4.68 8.02 -4 7 C-3.67 5.96875 -3.34 4.9375 -3 3.875 C-2 1 -2 1 0 0 Z " fill="#0F0F0F" transform="translate(82,126)"/>
<path d="M0 0 C0.2475 0.61875 0.495 1.2375 0.75 1.875 C2.20628639 4.35068687 3.37812506 4.95125002 6 6 C6 7.32 6 8.64 6 10 C5.01 10.33 4.02 10.66 3 11 C3.03122943 12.96756452 3.03122943 12.96756452 4 15 C6.99615946 16.3045656 6.99615946 16.3045656 10 17 C10 17.33 10 17.66 10 18 C6.24568878 17.71120683 3.69615714 17.51295789 0.625 15.25 C-1.28760147 12.60178258 -1.85141838 11.26879562 -2 8 C-1.48573681 5.26574918 -0.77229555 2.68031985 0 0 Z " fill="#25516E" transform="translate(250,189)"/>
<path d="M0 0 C0.33 0.66 0.66 1.32 1 2 C0.34 3.98 -0.32 5.96 -1 8 C-9.25 8 -17.5 8 -26 8 C-25.67 8.99 -25.34 9.98 -25 11 C-25.99 11 -26.98 11 -28 11 C-27.67 9.68 -27.34 8.36 -27 7 C-25.35 7 -23.7 7 -22 7 C-21.67 6.34 -21.34 5.68 -21 5 C-15.06 5 -9.12 5 -3 5 C-2.67 3.68 -2.34 2.36 -2 1 C-1.34 0.67 -0.68 0.34 0 0 Z " fill="#254D66" transform="translate(604,183)"/>
<path d="M0 0 C0.66 0 1.32 0 2 0 C0.63948216 8.73932638 -1.08419898 17.36612338 -3 26 C-3.33 26 -3.66 26 -4 26 C-4.66 22.04 -5.32 18.08 -6 14 C-5.34 14 -4.68 14 -4 14 C-4.37125 13.13375 -4.37125 13.13375 -4.75 12.25 C-4.8325 11.5075 -4.915 10.765 -5 10 C-3.66666667 8.66666667 -2.33333333 7.33333333 -1 6 C-0.19684346 2.85518209 -0.19684346 2.85518209 0 0 Z " fill="#1F4C66" transform="translate(239,181)"/>
<path d="M0 0 C2.95064148 -0.2208564 5.68368231 -0.28060989 8.625 -0.1875 C9.42679687 -0.17396484 10.22859375 -0.16042969 11.0546875 -0.14648438 C13.03674378 -0.11109051 15.01845551 -0.05728234 17 0 C17 0.33 17 0.66 17 1 C12.05 1 7.1 1 2 1 C1.67 2.65 1.34 4.3 1 6 C0.79375 6.639375 0.5875 7.27875 0.375 7.9375 C-0.14135175 10.77743461 0.42647233 13.19608697 1 16 C-1.475 15.01 -1.475 15.01 -4 14 C-3.71715982 12.22773547 -3.42339502 10.457212 -3.125 8.6875 C-2.96257812 7.70136719 -2.80015625 6.71523437 -2.6328125 5.69921875 C-2 3 -2 3 0 0 Z " fill="#20526C" transform="translate(492,164)"/>
<path d="M0 0 C0.33 0 0.66 0 1 0 C1.16435547 0.97839844 1.16435547 0.97839844 1.33203125 1.9765625 C2.27044606 7.14928804 3.4424254 11.34986436 6 16 C6 16.66 6 17.32 6 18 C7.32 18 8.64 18 10 18 C10 18.66 10 19.32 10 20 C6.56188206 19.71349017 5.25828807 19.26566773 2.8125 16.75 C-1.13243588 10.76458005 -1.11528886 6.91780522 0 0 Z " fill="#1E4A64" transform="translate(560,186)"/>
<path d="M0 0 C6.27 0 12.54 0 19 0 C17.94146945 6.12435531 16.8461553 12.06592939 15 18 C14.67 18 14.34 18 14 18 C14.11493757 16.10353002 14.24239642 14.20781668 14.375 12.3125 C14.47941406 10.72888672 14.47941406 10.72888672 14.5859375 9.11328125 C15 6 15 6 17 1 C11.72 1 6.44 1 1 1 C0.67 1.99 0.34 2.98 0 4 C0 2.68 0 1.36 0 0 Z " fill="#284E67" transform="translate(343,150)"/>
<path d="M0 0 C2 3 2 3 2 7 C1.34 7 0.68 7 0 7 C0 8.98 0 10.96 0 13 C-5.61 13 -11.22 13 -17 13 C-17 12.67 -17 12.34 -17 12 C-10.07 11.01 -10.07 11.01 -3 10 C-2.690625 8.535625 -2.38125 7.07125 -2.0625 5.5625 C-1.125 1.125 -1.125 1.125 0 0 Z " fill="#16475C" transform="translate(557,152)"/>
<path d="M0 0 C2.31246257 4.62492514 1.97332796 5.47899336 0.625 10.25 C0.18027344 11.86648437 0.18027344 11.86648437 -0.2734375 13.515625 C-0.63308594 14.74539062 -0.63308594 14.74539062 -1 16 C-4.41906232 16.72978305 -7.49870129 17.10003711 -11 17 C-8 15 -8 15 -6 15 C-6 14.34 -6 13.68 -6 13 C-4.35 12.34 -2.7 11.68 -1 11 C-0.67 7.37 -0.34 3.74 0 0 Z " fill="#1E455D" transform="translate(528,191)"/>
<path d="M0 0 C0.33 0 0.66 0 1 0 C1.06058594 0.67546875 1.12117187 1.3509375 1.18359375 2.046875 C1.26738281 2.93890625 1.35117188 3.8309375 1.4375 4.75 C1.55931641 6.07257813 1.55931641 6.07257813 1.68359375 7.421875 C1.9316934 9.94055516 1.9316934 9.94055516 2.5625 12.09375 C3.26180107 15.14070464 2.52646619 17.95819534 2 21 C1.01 21.33 0.02 21.66 -1 22 C-0.54177532 18.53058454 -0.10868317 15.32604951 1 12 C0.01 12 -0.98 12 -2 12 C-1.34 8.04 -0.68 4.08 0 0 Z " fill="#284F67" transform="translate(220,170)"/>
<path d="M0 0 C0 0.99 0 1.98 0 3 C-0.59167969 3.21914062 -1.18335938 3.43828125 -1.79296875 3.6640625 C-7.51341316 5.95970577 -10.29588326 8.13173229 -14 13 C-16.3125 14.375 -16.3125 14.375 -18 15 C-15.32942013 8.68386665 -9.17511239 3.66053263 -2.9375 1 C-1.968125 0.67 -0.99875 0.34 0 0 Z " fill="#295067" transform="translate(406,151)"/>
<path d="M0 0 C0.66 0.33 1.32 0.66 2 1 C2.33 0.67 2.66 0.34 3 0 C4.99958364 -0.04080783 7.00045254 -0.04254356 9 0 C2.62341231 5.84520539 -5.9065494 5.267798 -14 5 C-10.20960634 2.87000003 -7.34263862 2.83297544 -3 3 C-2.67 2.34 -2.34 1.68 -2 1 C-1.34 1.33 -0.68 1.66 0 2 C0 1.34 0 0.68 0 0 Z " fill="#245069" transform="translate(589,204)"/>
<path d="M0 0 C-0.28109113 1.64767247 -0.57518526 3.29313145 -0.875 4.9375 C-1.03742187 5.85402344 -1.19984375 6.77054688 -1.3671875 7.71484375 C-1.57601562 8.46894531 -1.78484375 9.22304687 -2 10 C-2.99 10.495 -2.99 10.495 -4 11 C-3.67 8.03 -3.34 5.06 -3 2 C-7.08378283 2.74250597 -11.01939223 3.82923301 -15 5 C-15.66 4.34 -16.32 3.68 -17 3 C-14.54383175 2.30378686 -12.0855877 1.61775372 -9.625 0.9375 C-8.57699219 0.63875977 -8.57699219 0.63875977 -7.5078125 0.33398438 C-2.2265625 -1.11328125 -2.2265625 -1.11328125 0 0 Z " fill="#274B63" transform="translate(602,193)"/>
<path d="M0 0 C0.99 0 1.98 0 3 0 C2.37392048 5.79947349 1.32599062 11.33809831 -0.0625 17 C-0.24876953 17.77472656 -0.43503906 18.54945313 -0.62695312 19.34765625 C-1.08076178 21.23270759 -1.53982492 23.1164927 -2 25 C-2.33 25 -2.66 25 -3 25 C-3 22.03 -3 19.06 -3 16 C-2.34 16 -1.68 16 -1 16 C-0.67 10.72 -0.34 5.44 0 0 Z " fill="#2A4E65" transform="translate(506,182)"/>
<path d="M0 0 C1.93408178 3.86816357 -0.86563594 9.09778764 -2 13 C-7.28 12.67 -12.56 12.34 -18 12 C-18 11.67 -18 11.34 -18 11 C-17.32453125 10.93941406 -16.6490625 10.87882813 -15.953125 10.81640625 C-15.06109375 10.73261719 -14.1690625 10.64882812 -13.25 10.5625 C-12.36828125 10.48128906 -11.4865625 10.40007812 -10.578125 10.31640625 C-8.30421452 10.03733542 -6.21230295 9.57231315 -4 9 C-3.34 9 -2.68 9 -2 9 C-1.855625 7.700625 -1.71125 6.40125 -1.5625 5.0625 C-1.125 1.125 -1.125 1.125 0 0 Z " fill="#284C67" transform="translate(552,195)"/>
<path d="M0 0 C6.7540791 -0.3807101 12.84056601 -0.05867109 19 3 C19.33 3.66 19.66 4.32 20 5 C18.93072266 4.80083984 18.93072266 4.80083984 17.83984375 4.59765625 C11.41079604 3.40569103 11.41079604 3.40569103 4.9375 2.5 C2 2 2 2 0 0 Z " fill="#2B5169" transform="translate(267,163)"/>
<path d="M0 0 C0.66 0.33 1.32 0.66 2 1 C1.42415568 3.38564077 0.77772405 5.66682784 0 8 C1.32 7.67 2.64 7.34 4 7 C4 9.66666667 4 12.33333333 4 15 C3.01 15 2.02 15 1 15 C1.33 13.35 1.66 11.7 2 10 C0.68 10 -0.64 10 -2 10 C-1.54177532 6.53058454 -1.10868317 3.32604951 0 0 Z " fill="#2A4F67" transform="translate(406,174)"/>
<path d="M0 0 C2 1 2 1 3 3 C2.360625 3.28875 1.72125 3.5775 1.0625 3.875 C-1.15206079 4.82823451 -1.15206079 4.82823451 -2 7 C-2.99 7 -3.98 7 -5 7 C-5 8.98 -5 10.96 -5 13 C-5.99 13 -6.98 13 -8 13 C-7.48118887 8.8275894 -6.28848726 6.74583179 -3.4375 3.6875 C-2.79683594 2.99011719 -2.15617187 2.29273438 -1.49609375 1.57421875 C-1.00238281 1.05472656 -0.50867188 0.53523437 0 0 Z " fill="#244F69" transform="translate(447,170)"/>
<path d="M0 0 C0.66 0 1.32 0 2 0 C2 0.99 2 1.98 2 3 C7.58500567 2.80101292 7.58500567 2.80101292 12 0 C12.99 0.33 13.98 0.66 15 1 C14.34 1 13.68 1 13 1 C13 1.66 13 2.32 13 3 C13.66 3 14.32 3 15 3 C15.33 3.99 15.66 4.98 16 6 C15.01 6.495 15.01 6.495 14 7 C14 6.01 14 5.02 14 4 C9.38 4 4.76 4 0 4 C-0.33 3.34 -0.66 2.68 -1 2 C-0.67 1.34 -0.34 0.68 0 0 Z " fill="#284F69" transform="translate(207,162)"/>
<path d="M0 0 C-0.4640625 0.8353125 -0.4640625 0.8353125 -0.9375 1.6875 C-2.06272326 4.13651534 -2.52536923 6.35562855 -3 9 C-3.33 9.99 -3.66 10.98 -4 12 C-4.33 11.01 -4.66 10.02 -5 9 C-5.99 8.67 -6.98 8.34 -8 8 C-7.01 6.68 -6.02 5.36 -5 4 C-5.33 3.34 -5.66 2.68 -6 2 C-3 0 -3 0 0 0 Z " fill="#28546F" transform="translate(259,180)"/>
<path d="M0 0 C2.16874252 0.50603992 3.99967627 0.99983813 6 2 C10.47673252 2.17218202 14.60598974 1.85736786 19 1 C17.94921875 2.48828125 17.94921875 2.48828125 16 4 C12.64453125 4.29296875 12.64453125 4.29296875 8.8125 4.1875 C7.54019531 4.16042969 6.26789063 4.13335937 4.95703125 4.10546875 C3.98121094 4.07066406 3.00539063 4.03585938 2 4 C2 3.01 2 2.02 2 1 C1.34 0.67 0.68 0.34 0 0 Z " fill="#254C66" transform="translate(457,193)"/>
<path d="M0 0 C1.58206057 0.00667536 3.16410534 0.0186375 4.74609375 0.03515625 C5.55240234 0.03966797 6.35871094 0.04417969 7.18945312 0.04882812 C9.18753131 0.06065107 11.18557158 0.07858711 13.18359375 0.09765625 C13.18359375 0.42765625 13.18359375 0.75765625 13.18359375 1.09765625 C8.23359375 1.09765625 3.28359375 1.09765625 -1.81640625 1.09765625 C-2.14640625 2.74765625 -2.47640625 4.39765625 -2.81640625 6.09765625 C-3.47640625 6.09765625 -4.13640625 6.09765625 -4.81640625 6.09765625 C-4.85912725 4.4315372 -4.85704457 2.7638274 -4.81640625 1.09765625 C-3.81640625 0.09765625 -3.81640625 0.09765625 0 0 Z " fill="#105361" transform="translate(495.81640625,163.90234375)"/>
<path d="M0 0 C-0.99 0.33 -1.98 0.66 -3 1 C-3.33 1.66 -3.66 2.32 -4 3 C-6.31 2.67 -8.62 2.34 -11 2 C-11.33 2.99 -11.66 3.98 -12 5 C-12.99 4.67 -13.98 4.34 -15 4 C-15 3.34 -15 2.68 -15 2 C-10.13948404 -0.59227518 -5.34728867 -0.18689553 0 0 Z " fill="#264F68" transform="translate(589,163)"/>
<path d="M0 0 C0.33 0 0.66 0 1 0 C1 3.63 1 7.26 1 11 C0.34 11 -0.32 11 -1 11 C-1 11.66 -1 12.32 -1 13 C-0.34 13.33 0.32 13.66 1 14 C-0.32 14 -1.64 14 -3 14 C-2.01 9.38 -1.02 4.76 0 0 Z " fill="#234A64" transform="translate(218,193)"/>
<path d="M0 0 C0.33 0.99 0.66 1.98 1 3 C1.66 3 2.32 3 3 3 C3 4.32 3 5.64 3 7 C2.34 7 1.68 7 1 7 C0.67 8.98 0.34 10.96 0 13 C-0.66 13 -1.32 13 -2 13 C-1.34 8.71 -0.68 4.42 0 0 Z " fill="#204963" transform="translate(539,151)"/>
<path d="M0 0 C2.125 0.375 2.125 0.375 4 1 C1.10945348 3.89054652 -0.72169133 3.99283448 -4.79296875 4.09765625 C-6.25784438 4.09102785 -7.72270378 4.07913087 -9.1875 4.0625 C-9.93708984 4.05798828 -10.68667969 4.05347656 -11.45898438 4.04882812 C-13.30602383 4.03706354 -15.15302213 4.01912865 -17 4 C-17 3.67 -17 3.34 -17 3 C-15.94039063 2.95101562 -14.88078125 2.90203125 -13.7890625 2.8515625 C-12.40101503 2.77653291 -11.01299549 2.70098515 -9.625 2.625 C-8.57699219 2.57859375 -8.57699219 2.57859375 -7.5078125 2.53125 C-3.29814173 2.40500502 -3.29814173 2.40500502 0 0 Z " fill="#29526A" transform="translate(320,204)"/>
<path d="M0 0 C0 0.99 0 1.98 0 3 C1.65 3 3.3 3 5 3 C5 3.33 5 3.66 5 4 C1.7 4 -1.6 4 -5 4 C-5.33 2.68 -5.66 1.36 -6 0 C-3 -1 -3 -1 0 0 Z " fill="#125D75" transform="translate(223,204)"/>
<path d="M0 0 C2.24215571 4.06390722 2.24030771 6.11386532 1 10.6875 C0.67 11.780625 0.34 12.87375 0 14 C-0.33 14 -0.66 14 -1 14 C-1.02705729 12.22925083 -1.04642195 10.45838289 -1.0625 8.6875 C-1.07410156 7.70136719 -1.08570313 6.71523437 -1.09765625 5.69921875 C-1 3 -1 3 0 0 Z " fill="#28516B" transform="translate(442,183)"/>
<path d="M0 0 C1.65 0.33 3.3 0.66 5 1 C5 1.99 5 2.98 5 4 C4.01 4.495 4.01 4.495 3 5 C3.33 6.32 3.66 7.64 4 9 C1.4375 6.75 1.4375 6.75 -1 4 C-0.8125 1.6875 -0.8125 1.6875 0 0 Z " fill="#204D68" transform="translate(386,194)"/>
<path d="M0 0 C2 2 2 2 2.25 5.8125 C2.17480324 9.25275166 1.55549361 11.88901279 0 15 C-0.66 14.01 -1.32 13.02 -2 12 C-1.67 11.67 -1.34 11.34 -1 11 C-0.76636119 9.15108054 -0.58696365 7.29511969 -0.4375 5.4375 C-0.35371094 4.42558594 -0.26992188 3.41367188 -0.18359375 2.37109375 C-0.12300781 1.58863281 -0.06242187 0.80617187 0 0 Z " fill="#2A5069" transform="translate(333,184)"/>
<path d="M0 0 C2.64 0.33 5.28 0.66 8 1 C8.33 2.32 8.66 3.64 9 5 C5.26512223 4.5020163 3.18762365 4.12508244 0 2 C0 1.34 0 0.68 0 0 Z " fill="#264C67" transform="translate(294,202)"/>
<path d="M0 0 C0.99 0.33 1.98 0.66 3 1 C3.08096803 2.45742463 3.13917774 3.91612807 3.1875 5.375 C3.22230469 6.18710938 3.25710937 6.99921875 3.29296875 7.8359375 C3.19628906 8.55007812 3.09960938 9.26421875 3 10 C2.01 10.66 1.02 11.32 0 12 C0.33 9.36 0.66 6.72 1 4 C0.34 3.67 -0.32 3.34 -1 3 C-0.67 2.01 -0.34 1.02 0 0 Z " fill="#000000" transform="translate(170,194)"/>
<path d="M0 0 C1.9375 0.75 1.9375 0.75 4 2 C4.75 4.125 4.75 4.125 5 6 C6.32 6 7.64 6 9 6 C9 6.66 9 7.32 9 8 C5.41209425 7.70100785 4.21833224 7.23013399 1.6875 4.5625 C0 2 0 2 0 0 Z " fill="#295068" transform="translate(561,198)"/>
<path d="M0 0 C1.65 0 3.3 0 5 0 C5 0.99 5 1.98 5 3 C2.5 5.1875 2.5 5.1875 0 7 C0 4.69 0 2.38 0 0 Z " fill="#1C4C63" transform="translate(379,164)"/>
<path d="M0 0 C3.48330216 0.64505596 6.09432866 1.98217268 9 4 C9 4.66 9 5.32 9 6 C4.75177626 5.52797514 2.80010291 3.03344482 0 0 Z " fill="#2E5063" transform="translate(443,201)"/>
<path d="M0 0 C2.31 0 4.62 0 7 0 C6.34 3.3 5.68 6.6 5 10 C3 6 3 6 3.375 3.75 C3.58125 3.1725 3.7875 2.595 4 2 C2.68 1.34 1.36 0.68 0 0 Z " fill="#284F64" transform="translate(476,193)"/>
<path d="M0 0 C1.98 0 3.96 0 6 0 C5.67 0.66 5.34 1.32 5 2 C3.68 1.67 2.36 1.34 1 1 C1 2.32 1 3.64 1 5 C1.66 5.33 2.32 5.66 3 6 C1.68 6.33 0.36 6.66 -1 7 C-0.67 4.69 -0.34 2.38 0 0 Z " fill="#29526E" transform="translate(297,190)"/>
<path d="M0 0 C0.33 0.66 0.66 1.32 1 2 C1.66 2 2.32 2 3 2 C3.33 1.34 3.66 0.68 4 0 C5.0625 1.875 5.0625 1.875 6 4 C5.67 4.66 5.34 5.32 5 6 C3.0625 5.25 3.0625 5.25 1 4 C0.25 1.875 0.25 1.875 0 0 Z " fill="#28516D" transform="translate(301,185)"/>
<path d="M0 0 C1.0326802 2.78823655 1.04509293 3.8677274 0.0625 6.75 C-0.288125 7.4925 -0.63875 8.235 -1 9 C-1.66 8.67 -2.32 8.34 -3 8 C-2.74438677 5.6568787 -2.40729228 3.32156597 -2 1 C-1.34 0.67 -0.68 0.34 0 0 Z " fill="#2A4F67" transform="translate(334,169)"/>
<path d="M0 0 C2.475 0.99 2.475 0.99 5 2 C4.67 3.32 4.34 4.64 4 6 C2.68 4.02 1.36 2.04 0 0 Z " fill="#000000" transform="translate(106,221)"/>
<path d="M0 0 C1.485 0.99 1.485 0.99 3 2 C2.67 2.66 2.34 3.32 2 4 C1.34 2.68 0.68 1.36 0 0 Z " fill="#000000" transform="translate(67,148)"/>
<path d="" fill="#000000" transform="translate(0,0)"/>
<path d="" fill="#000000" transform="translate(0,0)"/>
<path d="M0 0 C2 1 2 1 2 1 Z " fill="#000000" transform="translate(164,189)"/>
<path d="" fill="#000000" transform="translate(0,0)"/>
<path d="M0 0 C2 1 2 1 2 1 Z " fill="#000000" transform="translate(74,155)"/>
<path d="" fill="#000000" transform="translate(0,0)"/>
<path d="" fill="#000000" transform="translate(0,0)"/>
<path d="" fill="#000000" transform="translate(0,0)"/>
<path d="" fill="#000000" transform="translate(0,0)"/>
<path d="" fill="#000000" transform="translate(0,0)"/>
<path d="" fill="#000000" transform="translate(0,0)"/>
<path d="" fill="#000000" transform="translate(0,0)"/>
<path d="" fill="#000000" transform="translate(0,0)"/>
<path d="" fill="#000000" transform="translate(0,0)"/>
<path d="" fill="#000000" transform="translate(0,0)"/>
<path d="" fill="#000000" transform="translate(0,0)"/>
<path d="" fill="#000000" transform="translate(0,0)"/>
<path d="" fill="#000000" transform="translate(0,0)"/>
<path d="" fill="#000000" transform="translate(0,0)"/>
<path d="" fill="#000000" transform="translate(0,0)"/>
<path d="" fill="#000000" transform="translate(0,0)"/>
<path d="" fill="#000000" transform="translate(0,0)"/>
<path d="" fill="#000000" transform="translate(0,0)"/>
<path d="" fill="#000000" transform="translate(0,0)"/>
</svg>
